<?xml version="1.0" encoding="utf-8"?>
<!-- Generator: Adobe Illustrator 15.0.2, SVG Export Plug-In  -->
<!DOCTYPE svg PUBLIC "-//W3C//DTD SVG 1.1//EN" "http://www.w3.org/Graphics/SVG/1.1/DTD/svg11.dtd" [
	<!ENTITY ns_flows "http://ns.adobe.com/Flows/1.0/">
]>
<svg version="1.1"
	 xmlns="http://www.w3.org/2000/svg" xmlns:xlink="http://www.w3.org/1999/xlink" xmlns:a="http://ns.adobe.com/AdobeSVGViewerExtensions/3.0/"
	 x="0px" y="0px" width="276px" height="276px" viewBox="0.25 0.25 276 276" enable-background="new 0.25 0.25 276 276"
	 xml:space="preserve">
<defs>
</defs>
<circle fill="none" stroke="#000000" stroke-width="2" stroke-miterlimit="10" cx="138.5" cy="138.5" r="106"/>
<text transform="matrix(1 0 0 1 156.4043 117.7808)"><tspan x="0" y="0" font-family="'Quattrocento-Bold'" font-size="24" letter-spacing="-1">UM</tspan><tspan x="-10.74" y="24" font-family="'Quattrocento-Bold'" font-size="24" letter-spacing="-1">MUM</tspan><tspan x="-8.076" y="48" font-family="'Quattrocento-Bold'" font-size="24" letter-spacing="-1">GNI</tspan><tspan x="32.724" y="48" font-family="'Quattrocento-Bold'" font-size="24" letter-spacing="-13">T</tspan><tspan x="33.611" y="34" font-family="'Quattrocento-Bold'" font-size="24" letter-spacing="-1">−</tspan></text>
<text transform="matrix(1 0 0 1 73.4634 117.7808)"><tspan x="0" y="0" font-family="'Quattrocento-Bold'" font-size="24" letter-spacing="-1">SIGN</tspan><tspan x="-3.732" y="24" font-family="'Quattrocento-Bold'" font-size="24" letter-spacing="-1">MAXI</tspan><tspan x="4.02" y="48" font-family="'Quattrocento-Bold'" font-size="24" letter-spacing="-1">INSI</tspan></text>
<circle fill="none" cx="138.5" cy="138.5" r="111.25"/>
<text transform="matrix(-0.6712 -0.7413 0.7413 -0.6712 58.6094 216.0176)"><tspan x="0" y="0" font-family="'QuattrocentoSans'" font-size="32">·</tspan><tspan x="9.68" y="0.082" font-family="'QuattrocentoSans'" font-size="32" rotate="4.984"> </tspan><tspan x="19.205" y="0.578" font-family="'QuattrocentoSans'" font-size="32" rotate="13.128">A</tspan><tspan x="40.533" y="5.59" font-family="'QuattrocentoSans'" font-size="32" rotate="24.95">N</tspan><tspan x="62.064" y="15.877" font-family="'QuattrocentoSans'" font-size="32" rotate="36.746">C</tspan><tspan x="79.489" y="29.567" font-family="'QuattrocentoSans'" font-size="32" rotate="45.006">I</tspan><tspan x="86.993" y="36.863" font-family="'QuattrocentoSans'" font-size="32" rotate="52.412">E</tspan><tspan x="98.187" y="51.177" font-family="'QuattrocentoSans'" font-size="32" rotate="63.306">N</tspan><tspan x="108.577" y="72.727" font-family="'QuattrocentoSans'" font-size="32" rotate="74.243">T</tspan><tspan x="113.284" y="90.887" font-family="'QuattrocentoSans'" font-size="32" rotate="81.51"> </tspan><tspan x="114.641" y="100.564" font-family="'QuattrocentoSans'" font-size="32" rotate="86.488">·</tspan><tspan x="115.153" y="110.224" font-family="'QuattrocentoSans'" font-size="32" rotate="91.464"> </tspan><tspan x="115.287" y="119.736" font-family="'QuattrocentoSans'" font-size="32" rotate="99.819">G</tspan><tspan x="111.133" y="142.252" font-family="'QuattrocentoSans'" font-size="32" rotate="110.992">R</tspan><tspan x="103.56" y="161.336" font-family="'QuattrocentoSans'" font-size="32" rotate="121.022">E</tspan><tspan x="94.049" y="176.898" font-family="'QuattrocentoSans'" font-size="32" rotate="130.37">E</tspan><tspan x="82.216" y="190.783" font-family="'QuattrocentoSans'" font-size="32" rotate="140.263">K</tspan><tspan x="65.916" y="203.685" font-family="'QuattrocentoSans'" font-size="32" rotate="148.105"> </tspan><tspan x="57.586" y="208.767" font-family="'QuattrocentoSans'" font-size="32" rotate="153.142">·</tspan><tspan x="48.928" y="213.059" font-family="'QuattrocentoSans'" font-size="32" rotate="158.172"> </tspan><tspan x="40.205" y="216.911" font-family="'QuattrocentoSans'" font-size="32" rotate="166.332">A</tspan><tspan x="18.897" y="222.05" font-family="'QuattrocentoSans'" font-size="32" rotate="178.036">N</tspan><tspan x="-4.942" y="222.729" font-family="'QuattrocentoSans'" font-size="32" rotate="-169.77">D</tspan><tspan x="-28.539" y="217.786" font-family="'QuattrocentoSans'" font-size="32" rotate="-161.106"> </tspan><tspan x="-37.743" y="214.544" font-family="'QuattrocentoSans'" font-size="32" rotate="-156.07">·</tspan><tspan x="-46.569" y="210.536" font-family="'QuattrocentoSans'" font-size="32" rotate="-151.016"> </tspan><tspan x="-55.027" y="205.993" font-family="'QuattrocentoSans'" font-size="32" rotate="-144.079">L</tspan><tspan x="-68.902" y="196.044" font-family="'QuattrocentoSans'" font-size="32" rotate="-134.156">A</tspan><tspan x="-84.013" y="180.07" font-family="'QuattrocentoSans'" font-size="32" rotate="-123.733">T</tspan><tspan x="-94.099" y="164.27" font-family="'QuattrocentoSans'" font-size="32" rotate="-116.165">I</tspan><tspan x="-99.04" y="155.138" font-family="'QuattrocentoSans'" font-size="32" rotate="-107.269">N</tspan><tspan x="-105.547" y="131.942" font-family="'QuattrocentoSans'" font-size="32" rotate="-98.66"> </tspan><tspan x="-106.934" y="122.27" font-family="'QuattrocentoSans'" font-size="32" rotate="-93.683">·</tspan></text>
<circle fill="none" cx="138.5" cy="137.5" r="133.749"/>
<text transform="matrix(0.828 0.5607 -0.5607 0.828 56.4146 243.4619)"><tspan x="0" y="0" font-family="'QuattrocentoSans-Bold'" font-size="32">S</tspan><tspan x="22.906" y="-0.49" font-family="'QuattrocentoSans-Bold'" font-size="32" rotate="-9.734">E</tspan><tspan x="45.768" y="-4.482" font-family="'QuattrocentoSans-Bold'" font-size="32" rotate="-22.139">M</tspan><tspan x="77.262" y="-18.595" font-family="'QuattrocentoSans-Bold'" font-size="32" rotate="-35.036">B</tspan><tspan x="96.614" y="-32.578" font-family="'QuattrocentoSans-Bold'" font-size="32" rotate="-45.268">A</tspan><tspan x="114.726" y="-51.547" font-family="'QuattrocentoSans-Bold'" font-size="32" rotate="-57.21">N</tspan><tspan x="129.815" y="-76.459" font-family="'QuattrocentoSans-Bold'" font-size="32" rotate="-68.923">K</tspan></text>
<circle fill="none" stroke="#000000" stroke-width="2" stroke-miterlimit="10" cx="138.5" cy="138.5" r="137.5"/>
<path fill="none" stroke="#000000" stroke-width="3" stroke-miterlimit="10" d="M136.75,91.781c-18.492-13.024-49.03,8.117-72-3
	c0,3,0,6,0,9l-1.834-0.5l-1.166,1.5c-7.859-1.859-4.162,7.838-5,13l-1.5-0.5l-0.5,1.5c-2.666,0-5.334,0-8,0c0,4.667,0,9.333,0,14
	c2.666,0,5.334,0,8,0l0.5,1.5l1.5-0.5c0,8.667,0,17.333,0,26l-1.5-0.5l-0.5,1.5c-2.666,0-5.334,0-8,0c0,4.333,0,8.666,0,13
	c2.666,0,5.334,0,8,0l0.5,1.5l1.5-0.5c0,5.333,0,10.666,0,16c23.082,3.302,49.595,1.895,72-1c-0.318,3.318-0.151,6.151,2,7
	c5,0,10,0,15,0c3.135-0.198,0.835-5.832,3-7c21.795,2.98,48.499,4.356,71,1c0-5.334,0-10.667,0-16l1.833,0.5l1.167-1.5
	c2.333,0,4.667,0,7,0c0-4.334,0-8.667,0-13c-2.333,0-4.667,0-7,0l-1.167-1.5l-1.833,0.5c0-8.667,0-17.334,0-26l1.833,0.5l1.167-1.5
	c2.333,0,4.667,0,7,0c0-4.667,0-9.333,0-14c-2.333,0-4.667,0-7,0l-1.167-1.5l-1.833,0.5c-0.973-4.694,2.794-14.127-4-13
	c-0.333,0-0.667,0-1,0l-1.167-1.5l-1.833,0.5c0-3,0-6,0-9c-22.815,11.584-54.913-11.373-72,4l-1.5-0.5L136.75,91.781z"/>
<path fill="none" stroke="#000000" stroke-width="3" stroke-miterlimit="10" d="M137.25,90.723c-18.492-13.024-49.03,8.117-72-3
	c0,3,0,6,0,9l-1.834-0.5l-1.166,1.5c-7.859-1.859-4.162,7.838-5,13l-1.5-0.5l-0.5,1.5c-2.666,0-5.334,0-8,0c0,4.667,0,9.334,0,14
	c2.666,0,5.334,0,8,0l0.5,1.5l1.5-0.5c0,8.666,0,17.334,0,26l-1.5-0.5l-0.5,1.5c-2.666,0-5.334,0-8,0c0,4.334,0,8.666,0,13
	c2.666,0,5.334,0,8,0l0.5,1.5l1.5-0.5c0,5.334,0,10.666,0,16c23.082,3.302,49.595,1.895,72-1c-0.318,3.318-0.151,6.151,2,7
	c5,0,10,0,15,0c3.135-0.198,0.835-5.832,3-7c21.795,2.98,48.499,4.356,71,1c0-5.334,0-10.666,0-16l1.833,0.5l1.167-1.5
	c2.333,0,4.667,0,7,0c0-4.334,0-8.666,0-13c-2.333,0-4.667,0-7,0l-1.167-1.5l-1.833,0.5c0-8.666,0-17.334,0-26l1.833,0.5l1.167-1.5
	c2.333,0,4.667,0,7,0c0-4.666,0-9.333,0-14c-2.333,0-4.667,0-7,0l-1.167-1.5l-1.833,0.5c-0.973-4.694,2.794-14.127-4-13
	c-0.333,0-0.667,0-1,0l-1.167-1.5l-1.833,0.5c0-3,0-6,0-9c-22.815,11.584-54.913-11.373-72,4l-1.5-0.5L137.25,90.723z"/>
<path fill="none" stroke="#000000" stroke-width="3" stroke-miterlimit="10" d="M138.25,178.281c0-28.667,0-57.334,0-86"/>
<path fill="none" stroke="#000000" stroke-width="3" stroke-miterlimit="10" d="M138.25,178.281
	c0.113,0.089,0.229,0.179,0.342,0.268c22.298-12.781,48.695,7.563,72.441-2.767c0.491-0.299,1.233-0.976,1.907-1.617
	c0.94-25.567-0.338-51.329,0.643-76.884"/>
<path fill="none" stroke="#000000" stroke-width="3" stroke-miterlimit="10" d="M221.583,169.281c-0.522-5.268-0.563-10.737,0-16"/>
<path fill="none" stroke="#000000" stroke-width="3" stroke-miterlimit="10" d="M221.583,128.281c-0.525-5.6-0.563-11.404,0-17"/>
<path fill="none" stroke="#000000" stroke-width="3" stroke-miterlimit="10" d="M138.25,178.281
	c-0.332-0.047-0.664-0.093-0.996-0.139c-2.096-0.729-3.85-2.027-5.651-3.098c-22.206-4.506-46.163,10.627-67.528-0.666
	c-2.133-25.377,0.16-51.514-1.158-77.098"/>
<path fill="none" stroke="#000000" stroke-width="3" stroke-miterlimit="10" d="M55.25,128.281c0.787-5.52,0.842-11.49,0-17"/>
<path fill="none" stroke="#000000" stroke-width="3" stroke-miterlimit="10" d="M55.25,169.281c0.783-5.188,0.843-10.822,0-16"/>
<circle fill="none" cx="138.5" cy="138.5" r="122.5"/>
</svg>
