<?xml version="1.0" encoding="utf-8"?>
<!-- Generator: Adobe Illustrator 15.0.2, SVG Export Plug-In  -->
<!DOCTYPE svg PUBLIC "-//W3C//DTD SVG 1.1//EN" "http://www.w3.org/Graphics/SVG/1.1/DTD/svg11.dtd" [
	<!ENTITY ns_flows "http://ns.adobe.com/Flows/1.0/">
]>
<svg version="1.1"
	 xmlns="http://www.w3.org/2000/svg" xmlns:xlink="http://www.w3.org/1999/xlink" xmlns:a="http://ns.adobe.com/AdobeSVGViewerExtensions/3.0/"
	 x="0px" y="0px" width="800px" height="600px" viewBox="-124 -24 800 600" enable-background="new -124 -24 800 600"
	 xml:space="preserve">
<defs>
</defs>
<circle fill="none" stroke="#000000" stroke-width="2" stroke-miterlimit="10" cx="276" cy="276" r="212"/>
<text transform="matrix(1 0 0 1 311.8086 234.5615)"><tspan x="0" y="0" font-family="'Quattrocento-Bold'" font-size="48" letter-spacing="-2">UM</tspan><tspan x="-21.479" y="48" font-family="'Quattrocento-Bold'" font-size="48" letter-spacing="-2">MUM</tspan><tspan x="-16.151" y="96" font-family="'Quattrocento-Bold'" font-size="48" letter-spacing="-2">GNI</tspan><tspan x="65.447" y="96" font-family="'Quattrocento-Bold'" font-size="48" letter-spacing="-26">T</tspan><tspan x="67.223" y="68" font-family="'Quattrocento-Bold'" font-size="48" letter-spacing="-2">−</tspan></text>
<text transform="matrix(1 0 0 1 145.9268 234.5615)"><tspan x="0" y="0" font-family="'Quattrocento-Bold'" font-size="48" letter-spacing="-2">SIGN</tspan><tspan x="-7.464" y="48" font-family="'Quattrocento-Bold'" font-size="48" letter-spacing="-2">MAXI</tspan><tspan x="8.04" y="96" font-family="'Quattrocento-Bold'" font-size="48" letter-spacing="-2">INSI</tspan></text>
<circle fill="none" cx="276" cy="276" r="222.5"/>
<text transform="matrix(-0.6712 -0.7413 0.7413 -0.6712 116.2188 431.0361)"><tspan x="0" y="0" font-family="'QuattrocentoSans'" font-size="64">·</tspan><tspan x="19.382" y="0.165" font-family="'QuattrocentoSans'" font-size="64" rotate="4.989"> </tspan><tspan x="38.45" y="1.162" font-family="'QuattrocentoSans'" font-size="64" rotate="13.138">A</tspan><tspan x="81.129" y="11.201" font-family="'QuattrocentoSans'" font-size="64" rotate="24.966">N</tspan><tspan x="124.242" y="31.824" font-family="'QuattrocentoSans'" font-size="64" rotate="36.78">C</tspan><tspan x="159.094" y="59.241" font-family="'QuattrocentoSans'" font-size="64" rotate="45.045">I</tspan><tspan x="174.103" y="73.855" font-family="'QuattrocentoSans'" font-size="64" rotate="52.457">E</tspan><tspan x="196.477" y="102.515" font-family="'QuattrocentoSans'" font-size="64" rotate="63.356">N</tspan><tspan x="217.235" y="145.67" font-family="'QuattrocentoSans'" font-size="64" rotate="74.302">T</tspan><tspan x="226.618" y="182.04" font-family="'QuattrocentoSans'" font-size="64" rotate="81.58"> </tspan><tspan x="229.312" y="201.418" font-family="'QuattrocentoSans'" font-size="64" rotate="86.563">·</tspan><tspan x="230.308" y="220.76" font-family="'QuattrocentoSans'" font-size="64" rotate="91.543"> </tspan><tspan x="230.551" y="239.807" font-family="'QuattrocentoSans'" font-size="64" rotate="99.905">G</tspan><tspan x="222.161" y="284.873" font-family="'QuattrocentoSans'" font-size="64" rotate="111.091">R</tspan><tspan x="206.935" y="323.041" font-family="'QuattrocentoSans'" font-size="64" rotate="121.129">E</tspan><tspan x="187.809" y="354.193" font-family="'QuattrocentoSans'" font-size="64" rotate="130.494">E</tspan><tspan x="164.122" y="381.875" font-family="'QuattrocentoSans'" font-size="64" rotate="140.375">K</tspan><tspan x="131.441" y="407.634" font-family="'QuattrocentoSans'" font-size="64" rotate="148.227"> </tspan><tspan x="114.729" y="417.78" font-family="'QuattrocentoSans'" font-size="64" rotate="153.274">·</tspan><tspan x="97.357" y="426.34" font-family="'QuattrocentoSans'" font-size="64" rotate="158.313"> </tspan><tspan x="79.878" y="434.005" font-family="'QuattrocentoSans'" font-size="64" rotate="166.477">A</tspan><tspan x="37.215" y="444.178" font-family="'QuattrocentoSans'" font-size="64" rotate="178.185">N</tspan><tspan x="-10.531" y="445.407" font-family="'QuattrocentoSans'" font-size="64" rotate="-169.603">D</tspan><tspan x="-57.723" y="435.375" font-family="'QuattrocentoSans'" font-size="64" rotate="-160.931"> </tspan><tspan x="-76.138" y="428.824" font-family="'QuattrocentoSans'" font-size="64" rotate="-155.888">·</tspan><tspan x="-93.73" y="420.769" font-family="'QuattrocentoSans'" font-size="64" rotate="-150.844"> </tspan><tspan x="-110.651" y="411.615" font-family="'QuattrocentoSans'" font-size="64" rotate="-143.899">L</tspan><tspan x="-138.374" y="391.594" font-family="'QuattrocentoSans'" font-size="64" rotate="-133.964">A</tspan><tspan x="-168.516" y="359.514" font-family="'QuattrocentoSans'" font-size="64" rotate="-123.528">T</tspan><tspan x="-188.578" y="327.831" font-family="'QuattrocentoSans'" font-size="64" rotate="-115.956">I</tspan><tspan x="-198.398" y="309.52" font-family="'QuattrocentoSans'" font-size="64" rotate="-107.059">N</tspan><tspan x="-211.254" y="263.025" font-family="'QuattrocentoSans'" font-size="64" rotate="-98.435"> </tspan><tspan x="-213.952" y="243.648" font-family="'QuattrocentoSans'" font-size="64" rotate="-93.453">·</tspan></text>
<circle fill="none" cx="276" cy="274" r="267.499"/>
<text transform="matrix(0.828 0.5607 -0.5607 0.828 111.8286 485.9199)"><tspan x="0" y="0" font-family="'QuattrocentoSans-Bold'" font-size="64">S</tspan><tspan x="45.662" y="-0.961" font-family="'QuattrocentoSans-Bold'" font-size="64" rotate="-9.702">E</tspan><tspan x="91.286" y="-8.888" font-family="'QuattrocentoSans-Bold'" font-size="64" rotate="-22.083">M</tspan><tspan x="154.26" y="-37.001" font-family="'QuattrocentoSans-Bold'" font-size="64" rotate="-35.036">B</tspan><tspan x="192.874" y="-64.847" font-family="'QuattrocentoSans-Bold'" font-size="64" rotate="-45.167">A</tspan><tspan x="229.076" y="-102.608" font-family="'QuattrocentoSans-Bold'" font-size="64" rotate="-57.077">N</tspan><tspan x="259.332" y="-152.28" font-family="'QuattrocentoSans-Bold'" font-size="64" rotate="-68.773">K</tspan></text>
<path fill="none" stroke="#000000" stroke-width="2" stroke-miterlimit="10" d="M551,276c0,151.879-123.119,275-274.998,275
	C124.12,551,1,427.879,1,276C1,124.12,124.12,1,276.002,1C427.881,1,551,124.12,551,276z"/>
<path fill="none" stroke="#000000" stroke-width="3" stroke-miterlimit="10" d="M272.5,182.562c-36.984-26.049-98.061,16.234-144-6
	c0,6,0,12,0,18l-3.668-1l-2.332,3c-15.719-3.719-8.324,15.676-10,26l-3-1l-1,3c-5.332,0-10.668,0-16,0c0,9.333,0,18.667,0,28
	c5.332,0,10.668,0,16,0l1,3l3-1c0,17.333,0,34.667,0,52.001l-3-1l-1,3c-5.332,0-10.668,0-16,0c0,8.666,0,17.332,0,26
	c5.332,0,10.668,0,16,0l1,3l3-1c0,10.666,0,21.332,0,32c46.164,6.604,99.189,3.789,144-2c-0.637,6.637-0.303,12.303,4,14
	c10,0,20,0,30,0c6.27-0.396,1.67-11.664,6-14c43.59,5.961,96.998,8.713,142,2c0-10.668,0-21.334,0-32l3.666,1l2.334-3
	c4.666,0,9.334,0,14,0c0-8.668,0-17.334,0-26c-4.666,0-9.334,0-14,0l-2.334-3l-3.666,1c0-17.334,0-34.668,0-52.001l3.666,1l2.334-3
	c4.666,0,9.334,0,14,0c0-9.333,0-18.667,0-28c-4.666,0-9.334,0-14,0l-2.334-3l-3.666,1c-1.945-9.388,5.588-28.255-8-26
	c-0.666,0-1.334,0-2,0l-2.334-3l-3.666,1c0-6,0-12,0-18c-45.631,23.168-109.826-22.745-144,8l-3-1L272.5,182.562z"/>
<path fill="none" stroke="#000000" stroke-width="3" stroke-miterlimit="10" d="M273.5,180.445c-36.984-26.049-98.061,16.234-144-6
	c0,6,0,12,0,18l-3.668-1l-2.332,3c-15.719-3.719-8.324,15.676-10,26l-3-1l-1,3c-5.332,0-10.668,0-16,0c0,9.333,0,18.668,0,28
	c5.332,0,10.668,0,16,0l1,3l3-1c0,17.332,0,34.668,0,52l-3-1l-1,3c-5.332,0-10.668,0-16,0c0,8.668,0,17.332,0,26
	c5.332,0,10.668,0,16,0l1,3l3-1c0,10.668,0,21.332,0,32c46.164,6.604,99.189,3.789,144-2c-0.637,6.637-0.303,12.303,4,14
	c10,0,20,0,30,0c6.27-0.396,1.67-11.664,6-14c43.59,5.961,96.998,8.713,142,2c0-10.668,0-21.332,0-32l3.666,1l2.334-3
	c4.666,0,9.334,0,14,0c0-8.668,0-17.332,0-26c-4.666,0-9.334,0-14,0l-2.334-3l-3.666,1c0-17.332,0-34.668,0-52l3.666,1l2.334-3
	c4.666,0,9.334,0,14,0c0-9.332,0-18.667,0-28c-4.666,0-9.334,0-14,0l-2.334-3l-3.666,1c-1.945-9.388,5.588-28.255-8-26
	c-0.666,0-1.334,0-2,0l-2.334-3l-3.666,1c0-6,0-12,0-18c-45.631,23.168-109.826-22.745-144,8l-3-1L273.5,180.445z"/>
<path fill="none" stroke="#000000" stroke-width="3" stroke-miterlimit="10" d="M275.5,355.563c0-57.334,0-114.668,0-172.001"/>
<path fill="none" stroke="#000000" stroke-width="3" stroke-miterlimit="10" d="M275.5,355.563c0.227,0.178,0.457,0.357,0.684,0.535
	c44.596-25.563,97.391,15.125,144.883-5.533c0.982-0.598,2.467-1.951,3.814-3.234c1.881-51.135-0.676-102.657,1.285-153.769"/>
<path fill="none" stroke="#000000" stroke-width="3" stroke-miterlimit="10" d="M442.166,337.563c-1.045-10.535-1.125-21.475,0-32"
	/>
<path fill="none" stroke="#000000" stroke-width="3" stroke-miterlimit="10" d="M442.166,255.562c-1.051-11.2-1.125-22.809,0-34"/>
<path fill="none" stroke="#000000" stroke-width="3" stroke-miterlimit="10" d="M275.5,355.563
	c-0.664-0.094-1.328-0.186-1.992-0.277c-4.191-1.459-7.699-4.055-11.303-6.195c-44.412-9.012-92.326,21.254-135.057-1.332
	c-4.266-50.754,0.32-103.028-2.316-154.196"/>
<path fill="none" stroke="#000000" stroke-width="3" stroke-miterlimit="10" d="M109.5,255.562c1.574-11.04,1.684-22.979,0-34"/>
<path fill="none" stroke="#000000" stroke-width="3" stroke-miterlimit="10" d="M109.5,337.563c1.566-10.375,1.686-21.645,0-32"/>
<circle fill="none" cx="276" cy="276" r="245"/>
</svg>
